Coordinates
version=1
nRows=4
nColumns=42
inDegrees=yes
Units are S.I. units (second, meters, Newtons, ...)
If the header above contains a line with 'inDegrees', this indicates whether rotational values are in degrees (yes) or radians (no).
endheader
time	pelvis_tilt	pelvis_list	pelvis_rotation	pelvis_tx	pelvis_ty	pelvis_tz	hip_flexion_r	hip_adduction_r	hip_rotation_r	knee_angle_r	knee_adduction_r	knee_angle_r_beta	ankle_angle_r	subtalar_angle_r	mtp_angle_r	hip_flexion_l	hip_adduction_l	hip_rotation_l	knee_angle_l	knee_adduction_l	knee_angle_l_beta	ankle_angle_l	subtalar_angle_l	mtp_angle_l	lumbar_extension	lumbar_bending	lumbar_rotation	arm_flex_r	arm_add_r	arm_rot_r	elbow_flex_r	pro_sup_r	wrist_flex_r	wrist_dev_r	arm_flex_l	arm_add_l	arm_rot_l	elbow_flex_l	pro_sup_l	wrist_flex_l	wrist_dev_l
    0.00000000000000	   -9.24623198842795	    2.32556162579833	   -1.41725083706361	   -0.64319678146347	    0.91845120630186	    0.34968007927099	   41.35575845277667	   -8.71138124032789	   -1.46304912128715	   30.19813189105573	    5.85288448000000	    0.52705682718863	   -4.56770259189448	    2.53090173691348	    0.00000000000000	   -1.01463479397430	    3.61108786947745	  -25.05753912817029	   15.47566581499181	    4.70865390000000	    0.27010132010819	   29.07116002220901	    5.08154591229715	  -10.00000000000000	  -13.99693382474206	    5.77491780125208	   -4.52361021363362	   -2.43301517074173	   -5.31740204338257	  -23.47647201781442	   74.91594865327679	   90.00000000999999	    0.00000000000000	    0.00000000000000	   13.39294672408635	  -28.40131365123645	   -7.97554512254063	   59.41722341036922	   90.00000000999999	    0.00000000000000	    0.00000000000000	
    0.00500000000000	   -9.48686185716980	    2.26951581278888	   -1.43141520390973	   -0.64049029642750	    0.91763523572040	    0.34980634900696	   41.73748737377043	   -8.65711872635501	   -1.45031945729925	   30.77053646977179	    5.85288448000000	    0.53704717198637	   -4.20236264765833	    2.49059481310939	    0.00000000000000	   -1.02128975248016	    3.56723202489668	  -25.08557105016168	   15.32664773560647	    4.70865390000000	    0.26750046429628	   29.11662344286935	    5.12296173719923	  -10.00000000000000	  -13.96209657419783	    5.90571008916900	   -4.58229700959484	   -2.68304951354227	   -5.25769690216126	  -23.53700358154712	   74.54676090960415	   90.00000000999999	    0.00000000000000	    0.00000000000000	   13.60222739333341	  -28.86041311303163	   -8.11359116826234	   59.51396104741620	   90.00000000999999	    0.00000000000000	    0.00000000000000	
    0.01000000000000	   -9.73036825521606	    2.21260534998265	   -1.44546140969402	   -0.63774106445381	    0.91680620932608	    0.34993906868344	   42.12382543097807	   -8.60175772237947	   -1.43703751788432	   31.35132886679657	    5.85288448000000	    0.54718391183867	   -3.83179992833748	    2.45069184896797	    0.00000000000000	   -1.02816752110103	    3.52128802480125	  -25.11622938963423	   15.17801133196431	    4.70865390000000	    0.26490626997816	   29.16275322606305	    5.16745819940824	  -10.00000000000000	  -13.92677580473303	    6.03820877327662	   -4.64172971634591	   -2.93616790880905	   -5.19754817813256	  -23.59887838857021	   74.17497398713272	   90.00000000999999	    0.00000000000000	    0.00000000000000	   13.81356451896210	  -29.32924947878599	   -8.24922102862119	   59.61103836168627	   90.00000000999999	    0.00000000000000	    0.00000000000000	
    0.01500000000000	   -9.97588297183874	    2.15508352635327	   -1.45926086534586	   -0.63495471741916	    0.91596547290273	    0.35007915082171	   42.51357109642382	   -8.54561322352004	   -1.42341313554725	   31.93931693446705	    5.85288448000000	    0.55744623983959	   -3.45715583106642	    2.41133882598689	    0.00000000000000	   -1.03542308177836	    3.47313900575596	  -25.15030609634237	   15.03082321870839	    4.70865390000000	    0.26233735308507	   29.20944522254872	    5.21657994397278	  -10.00000000000000	  -13.89079816653351	    6.17179317124474	   -4.70183258610791	   -3.19116169463418	   -5.13741769769130	  -23.66226624066492	   73.80288621359638	   90.00000000999999	    0.00000000000000	    0.00000000000000	   14.02511976659637	  -29.80754162239241	   -8.38044529560524	   59.70730275133096	   90.00000000999999	    0.00000000000000	    0.00000000000000	
